<?xml version="1.0" encoding="UTF-8" standalone="no"?><svg xmlns="http://www.w3.org/2000/svg" xmlns:xlink="http://www.w3.org/1999/xlink" contentScriptType="application/ecmascript" contentStyleType="text/css" height="580px" preserveAspectRatio="none" style="width:1005px;height:580px;" version="1.1" viewBox="0 0 1005 580" width="1005px" zoomAndPan="magnify"><defs><filter height="300%" id="f1h2qzopxg4sst" width="300%" x="-1" y="-1"><feGaussianBlur result="blurOut" stdDeviation="2.0"/><feColorMatrix in="blurOut" result="blurOut2" type="matrix" values="0 0 0 0 0 0 0 0 0 0 0 0 0 0 0 0 0 0 .4 0"/><feOffset dx="4.0" dy="4.0" in="blurOut2" result="blurOut3"/><feBlend in="SourceGraphic" in2="blurOut3" mode="normal"/></filter></defs><g><ellipse cx="483" cy="16" fill="#000000" filter="url(#f1h2qzopxg4sst)" rx="10" ry="10" style="stroke:none;stroke-width:1.0;"/><g id="created"><rect fill="#FEFECE" filter="url(#f1h2qzopxg4sst)" height="78.2031" rx="12.5" ry="12.5" style="stroke:#A80036;stroke-width:1.5;" width="127" x="419.5" y="87"/><line style="stroke:#A80036;stroke-width:1.5;" x1="419.5" x2="546.5" y1="113.2969" y2="113.2969"/><text fill="#000000" font-family="sans-serif" font-size="14" lengthAdjust="spacing" textLength="55" x="455.5" y="104.9951">created</text><text fill="#000000" font-family="sans-serif" font-size="12" lengthAdjust="spacing" textLength="95" x="424.5" y="129.4355">New Payment\n</text><text fill="#000000" font-family="sans-serif" font-size="12" lengthAdjust="spacing" textLength="107" x="424.5" y="143.4043">ExecutionContext</text><text fill="#000000" font-family="sans-serif" font-size="12" lengthAdjust="spacing" textLength="85" x="424.5" y="157.373">state: Created</text></g><g id="processing"><rect fill="#FEFECE" filter="url(#f1h2qzopxg4sst)" height="92.1719" rx="12.5" ry="12.5" style="stroke:#A80036;stroke-width:1.5;" width="154" x="406" y="226"/><line style="stroke:#A80036;stroke-width:1.5;" x1="406" x2="560" y1="252.2969" y2="252.2969"/><text fill="#000000" font-family="sans-serif" font-size="14" lengthAdjust="spacing" textLength="77" x="444.5" y="243.9951">processing</text><text fill="#000000" font-family="sans-serif" font-size="12" lengthAdjust="spacing" textLength="134" x="411" y="268.4355">Payment processing\n</text><text fill="#000000" font-family="sans-serif" font-size="12" lengthAdjust="spacing" textLength="107" x="411" y="282.4043">ExecutionContext</text><text fill="#000000" font-family="sans-serif" font-size="12" lengthAdjust="spacing" textLength="102" x="411" y="296.373">state: Processing</text><text fill="#000000" font-family="sans-serif" font-size="12" lengthAdjust="spacing" textLength="92" x="411" y="310.3418">taskId: "string"</text></g><g id="delayed"><rect fill="#FEFECE" filter="url(#f1h2qzopxg4sst)" height="92.1719" rx="12.5" ry="12.5" style="stroke:#A80036;stroke-width:1.5;" width="328" x="7" y="395"/><line style="stroke:#A80036;stroke-width:1.5;" x1="7" x2="335" y1="421.2969" y2="421.2969"/><text fill="#000000" font-family="sans-serif" font-size="14" lengthAdjust="spacing" textLength="57" x="142.5" y="412.9951">delayed</text><text fill="#000000" font-family="sans-serif" font-size="12" lengthAdjust="spacing" textLength="308" x="12" y="437.4355">Processing is delayed \nuntil the moment of time\n</text><text fill="#000000" font-family="sans-serif" font-size="12" lengthAdjust="spacing" textLength="107" x="12" y="451.4043">ExecutionContext</text><text fill="#000000" font-family="sans-serif" font-size="12" lengthAdjust="spacing" textLength="86" x="12" y="465.373">state: Delayed</text><text fill="#000000" font-family="sans-serif" font-size="12" lengthAdjust="spacing" textLength="163" x="12" y="479.3418">postponedTo: "timestamp"</text></g><g id="suspend"><rect fill="#FEFECE" filter="url(#f1h2qzopxg4sst)" height="92.1719" rx="12.5" ry="12.5" style="stroke:#A80036;stroke-width:1.5;" width="341" x="370.5" y="395"/><line style="stroke:#A80036;stroke-width:1.5;" x1="370.5" x2="711.5" y1="421.2969" y2="421.2969"/><text fill="#000000" font-family="sans-serif" font-size="14" lengthAdjust="spacing" textLength="59" x="511.5" y="412.9951">suspend</text><text fill="#000000" font-family="sans-serif" font-size="12" lengthAdjust="spacing" textLength="321" x="375.5" y="437.4355">Processing is suspend \nuntil the cause is resolved \n</text><text fill="#000000" font-family="sans-serif" font-size="12" lengthAdjust="spacing" textLength="107" x="375.5" y="451.4043">ExecutionContext</text><text fill="#000000" font-family="sans-serif" font-size="12" lengthAdjust="spacing" textLength="91" x="375.5" y="465.373">state: Suspend</text><text fill="#000000" font-family="sans-serif" font-size="12" lengthAdjust="spacing" textLength="90" x="375.5" y="479.3418">cause: "string"</text></g><g id="finished"><rect fill="#FEFECE" filter="url(#f1h2qzopxg4sst)" height="92.1719" rx="12.5" ry="12.5" style="stroke:#A80036;stroke-width:1.5;" width="244" x="747" y="395"/><line style="stroke:#A80036;stroke-width:1.5;" x1="747" x2="991" y1="421.2969" y2="421.2969"/><text fill="#000000" font-family="sans-serif" font-size="14" lengthAdjust="spacing" textLength="56" x="841" y="412.9951">finished</text><text fill="#000000" font-family="sans-serif" font-size="12" lengthAdjust="spacing" textLength="224" x="752" y="437.4355">Processing completed successfully \n</text><text fill="#000000" font-family="sans-serif" font-size="12" lengthAdjust="spacing" textLength="107" x="752" y="451.4043">ExecutionContext</text><text fill="#000000" font-family="sans-serif" font-size="12" lengthAdjust="spacing" textLength="88" x="752" y="465.373">state: Finished</text><text fill="#000000" font-family="sans-serif" font-size="12" lengthAdjust="spacing" textLength="135" x="752" y="479.3418">payedAt: "timestamp"</text></g><ellipse cx="869" cy="558" fill="none" filter="url(#f1h2qzopxg4sst)" rx="10" ry="10" style="stroke:#000000;stroke-width:1.0;"/><ellipse cx="869.5" cy="558.5" fill="#000000" rx="6" ry="6" style="stroke:none;stroke-width:1.0;"/><!--MD5=[9b71c4725ac9801b7644efa3121aaaab]
link *start to created--><path d="M483,26.21 C483,38.53 483,61.21 483,81.74 " fill="none" id="*start-to-created" style="stroke:#A80036;stroke-width:1.0;"/><polygon fill="#A80036" points="483,86.9,487,77.9,483,81.9,479,77.9,483,86.9" style="stroke:#A80036;stroke-width:1.0;"/><!--MD5=[81cfb27b77f932826db44a59c754a5b3]
link created to processing--><path d="M483,165.21 C483,182.27 483,202.6 483,220.86 " fill="none" id="created-to-processing" style="stroke:#A80036;stroke-width:1.0;"/><polygon fill="#A80036" points="483,225.96,487,216.96,483,220.96,479,216.96,483,225.96" style="stroke:#A80036;stroke-width:1.0;"/><!--MD5=[22196aca0d6f6f5c7a4fe28f62ee0804]
link processing to delayed--><path d="M406,285.08 C356.44,295.64 292.48,314.69 244,348 C227.72,359.19 213.3,375.09 201.68,390.53 " fill="none" id="processing-to-delayed" style="stroke:#A80036;stroke-width:1.0;"/><polygon fill="#A80036" points="198.47,394.86,207.0314,389.9914,201.4379,390.8362,200.5932,385.2427,198.47,394.86" style="stroke:#A80036;stroke-width:1.0;"/><!--MD5=[4ab019a576cd6bf25e5b9695c5e40a9a]
link delayed to processing--><path d="M252.42,394.97 C279.86,379.91 310.7,363.12 339,348 C359.11,337.26 380.89,325.82 401.27,315.19 " fill="none" id="delayed-to-processing" style="stroke:#A80036;stroke-width:1.0;"/><polygon fill="#A80036" points="405.87,312.8,396.0386,313.3854,401.4297,315.0987,399.7164,320.4898,405.87,312.8" style="stroke:#A80036;stroke-width:1.0;"/><text fill="#000000" font-family="sans-serif" font-size="13" lengthAdjust="spacing" textLength="152" x="340" y="361.0669">Changed by a new task</text><!--MD5=[542e6bc32d694f06345bfca30db40085]
link processing to suspend--><path d="M491.75,318.01 C495.22,333.14 499.67,349.99 505,365 C507.94,373.27 511.5,381.84 515.24,390.1 " fill="none" id="processing-to-suspend" style="stroke:#A80036;stroke-width:1.0;"/><polygon fill="#A80036" points="517.33,394.65,517.1844,384.8022,515.232,390.1115,509.9228,388.159,517.33,394.65" style="stroke:#A80036;stroke-width:1.0;"/><!--MD5=[fc6355f9ecf4494afb9ed719f158175c]
link suspend to processing--><path d="M525.29,394.77 C517.59,372.58 508.28,345.79 500.36,322.99 " fill="none" id="suspend-to-processing" style="stroke:#A80036;stroke-width:1.0;"/><polygon fill="#A80036" points="498.7,318.19,497.8752,328.0043,500.3409,322.9131,505.4321,325.3788,498.7,318.19" style="stroke:#A80036;stroke-width:1.0;"/><text fill="#000000" font-family="sans-serif" font-size="13" lengthAdjust="spacing" textLength="152" x="515" y="361.0669">Changed by a new task</text><!--MD5=[0a8fad9e8b8191a7078fed79fb34bc08]
link processing to finished--><path d="M560.08,301.45 C595.62,314.95 638.21,331.68 676,348 C707.99,361.82 742.48,377.87 773.32,392.67 " fill="none" id="processing-to-finished" style="stroke:#A80036;stroke-width:1.0;"/><polygon fill="#A80036" points="777.84,394.84,771.4727,387.3262,773.3369,392.6671,767.996,394.5312,777.84,394.84" style="stroke:#A80036;stroke-width:1.0;"/><!--MD5=[f20ab7065c26ebabf49f7b8c32a28769]
link finished to *end--><path d="M869,487.12 C869,506.9 869,528.72 869,542.63 " fill="none" id="finished-to-*end" style="stroke:#A80036;stroke-width:1.0;"/><polygon fill="#A80036" points="869,547.73,873,538.73,869,542.73,865,538.73,869,547.73" style="stroke:#A80036;stroke-width:1.0;"/><!--MD5=[0b4c7d51284b7a3be33ccd408c692a24]
@startuml

[*] - -> created
created: New Payment\n
created: ExecutionContext
created: state: Created

created - -> processing
processing: Payment processing\n
processing: ExecutionContext
processing: state: Processing
processing: taskId: "string"

processing - -> delayed
delayed: Processing is delayed \nuntil the moment of time\n
delayed: ExecutionContext
delayed: state: Delayed
delayed: postponedTo: "timestamp"
delayed - -> processing : Changed by a new task

processing - -> suspend
suspend: Processing is suspend \nuntil the cause is resolved \n
suspend: ExecutionContext
suspend: state: Suspend
suspend: cause: "string"
suspend - -> processing : Changed by a new task

processing - -> finished
finished: Processing completed successfully \n
finished: ExecutionContext
finished: state: Finished
finished: payedAt: "timestamp"
finished - -> [*]

@enduml

PlantUML version 1.2021.01(Tue Feb 02 14:55:08 NOVT 2021)
(GPL source distribution)
Java Runtime: OpenJDK Runtime Environment
JVM: OpenJDK 64-Bit Server VM
Default Encoding: UTF-8
Language: en
Country: US
--></g></svg>