<?xml version="1.0" encoding="UTF-8" standalone="no"?><svg xmlns="http://www.w3.org/2000/svg" xmlns:xlink="http://www.w3.org/1999/xlink" contentScriptType="application/ecmascript" contentStyleType="text/css" height="580px" preserveAspectRatio="none" style="width:937px;height:580px;" version="1.1" viewBox="0 0 937 580" width="937px" zoomAndPan="magnify"><defs><filter height="300%" id="f1p4k4ufbi9v7t" width="300%" x="-1" y="-1"><feGaussianBlur result="blurOut" stdDeviation="2.0"/><feColorMatrix in="blurOut" result="blurOut2" type="matrix" values="0 0 0 0 0 0 0 0 0 0 0 0 0 0 0 0 0 0 .4 0"/><feOffset dx="4.0" dy="4.0" in="blurOut2" result="blurOut3"/><feBlend in="SourceGraphic" in2="blurOut3" mode="normal"/></filter></defs><g><ellipse cx="445" cy="16" fill="#000000" filter="url(#f1p4k4ufbi9v7t)" rx="10" ry="10" style="stroke:none;stroke-width:1.0;"/><g id="created"><rect fill="#FEFECE" filter="url(#f1p4k4ufbi9v7t)" height="78.2031" rx="12.5" ry="12.5" style="stroke:#A80036;stroke-width:1.5;" width="127" x="381.5" y="87"/><line style="stroke:#A80036;stroke-width:1.5;" x1="381.5" x2="508.5" y1="113.2969" y2="113.2969"/><text fill="#000000" font-family="sans-serif" font-size="14" lengthAdjust="spacing" textLength="55" x="417.5" y="104.9951">created</text><text fill="#000000" font-family="sans-serif" font-size="12" lengthAdjust="spacing" textLength="83" x="386.5" y="129.4355">New Payment</text><text fill="#000000" font-family="sans-serif" font-size="12" lengthAdjust="spacing" textLength="107" x="386.5" y="143.4043">ExecutionContext</text><text fill="#000000" font-family="sans-serif" font-size="12" lengthAdjust="spacing" textLength="85" x="386.5" y="157.373">state: Created</text></g><g id="processing"><rect fill="#FEFECE" filter="url(#f1p4k4ufbi9v7t)" height="92.1719" rx="12.5" ry="12.5" style="stroke:#A80036;stroke-width:1.5;" width="142" x="374" y="226"/><line style="stroke:#A80036;stroke-width:1.5;" x1="374" x2="516" y1="252.2969" y2="252.2969"/><text fill="#000000" font-family="sans-serif" font-size="14" lengthAdjust="spacing" textLength="77" x="406.5" y="243.9951">processing</text><text fill="#000000" font-family="sans-serif" font-size="12" lengthAdjust="spacing" textLength="122" x="379" y="268.4355">Payment processing</text><text fill="#000000" font-family="sans-serif" font-size="12" lengthAdjust="spacing" textLength="107" x="379" y="282.4043">ExecutionContext</text><text fill="#000000" font-family="sans-serif" font-size="12" lengthAdjust="spacing" textLength="102" x="379" y="296.373">state: Processing</text><text fill="#000000" font-family="sans-serif" font-size="12" lengthAdjust="spacing" textLength="92" x="379" y="310.3418">taskId: "string"</text></g><g id="delayed"><rect fill="#FEFECE" filter="url(#f1p4k4ufbi9v7t)" height="92.1719" rx="12.5" ry="12.5" style="stroke:#A80036;stroke-width:1.5;" width="304" x="7" y="395"/><line style="stroke:#A80036;stroke-width:1.5;" x1="7" x2="311" y1="421.2969" y2="421.2969"/><text fill="#000000" font-family="sans-serif" font-size="14" lengthAdjust="spacing" textLength="57" x="130.5" y="412.9951">delayed</text><text fill="#000000" font-family="sans-serif" font-size="12" lengthAdjust="spacing" textLength="284" x="12" y="437.4355">Processing is delayed until the moment of time</text><text fill="#000000" font-family="sans-serif" font-size="12" lengthAdjust="spacing" textLength="107" x="12" y="451.4043">ExecutionContext</text><text fill="#000000" font-family="sans-serif" font-size="12" lengthAdjust="spacing" textLength="86" x="12" y="465.373">state: Delayed</text><text fill="#000000" font-family="sans-serif" font-size="12" lengthAdjust="spacing" textLength="163" x="12" y="479.3418">postponedTo: "timestamp"</text></g><g id="suspend"><rect fill="#FEFECE" filter="url(#f1p4k4ufbi9v7t)" height="92.1719" rx="12.5" ry="12.5" style="stroke:#A80036;stroke-width:1.5;" width="313" x="346.5" y="395"/><line style="stroke:#A80036;stroke-width:1.5;" x1="346.5" x2="659.5" y1="421.2969" y2="421.2969"/><text fill="#000000" font-family="sans-serif" font-size="14" lengthAdjust="spacing" textLength="59" x="473.5" y="412.9951">suspend</text><text fill="#000000" font-family="sans-serif" font-size="12" lengthAdjust="spacing" textLength="293" x="351.5" y="437.4355">Processing is suspend until the cause is resolved</text><text fill="#000000" font-family="sans-serif" font-size="12" lengthAdjust="spacing" textLength="107" x="351.5" y="451.4043">ExecutionContext</text><text fill="#000000" font-family="sans-serif" font-size="12" lengthAdjust="spacing" textLength="91" x="351.5" y="465.373">state: Suspend</text><text fill="#000000" font-family="sans-serif" font-size="12" lengthAdjust="spacing" textLength="90" x="351.5" y="479.3418">cause: "string"</text></g><g id="finished"><rect fill="#FEFECE" filter="url(#f1p4k4ufbi9v7t)" height="92.1719" rx="12.5" ry="12.5" style="stroke:#A80036;stroke-width:1.5;" width="228" x="695" y="395"/><line style="stroke:#A80036;stroke-width:1.5;" x1="695" x2="923" y1="421.2969" y2="421.2969"/><text fill="#000000" font-family="sans-serif" font-size="14" lengthAdjust="spacing" textLength="56" x="781" y="412.9951">finished</text><text fill="#000000" font-family="sans-serif" font-size="12" lengthAdjust="spacing" textLength="208" x="700" y="437.4355">Processing completed successfully</text><text fill="#000000" font-family="sans-serif" font-size="12" lengthAdjust="spacing" textLength="107" x="700" y="451.4043">ExecutionContext</text><text fill="#000000" font-family="sans-serif" font-size="12" lengthAdjust="spacing" textLength="88" x="700" y="465.373">state: Finished</text><text fill="#000000" font-family="sans-serif" font-size="12" lengthAdjust="spacing" textLength="135" x="700" y="479.3418">payedAt: "timestamp"</text></g><ellipse cx="809" cy="558" fill="none" filter="url(#f1p4k4ufbi9v7t)" rx="10" ry="10" style="stroke:#000000;stroke-width:1.0;"/><ellipse cx="809.5" cy="558.5" fill="#000000" rx="6" ry="6" style="stroke:none;stroke-width:1.0;"/><!--MD5=[9b71c4725ac9801b7644efa3121aaaab]
link *start to created--><path d="M445,26.21 C445,38.53 445,61.21 445,81.74 " fill="none" id="*start-to-created" style="stroke:#A80036;stroke-width:1.0;"/><polygon fill="#A80036" points="445,86.9,449,77.9,445,81.9,441,77.9,445,86.9" style="stroke:#A80036;stroke-width:1.0;"/><!--MD5=[81cfb27b77f932826db44a59c754a5b3]
link created to processing--><path d="M445,165.21 C445,182.27 445,202.6 445,220.86 " fill="none" id="created-to-processing" style="stroke:#A80036;stroke-width:1.0;"/><polygon fill="#A80036" points="445,225.96,449,216.96,445,220.96,441,216.96,445,225.96" style="stroke:#A80036;stroke-width:1.0;"/><!--MD5=[22196aca0d6f6f5c7a4fe28f62ee0804]
link processing to delayed--><path d="M373.87,282.1 C324.08,291.54 258.43,310.47 212,348 C198.23,359.13 187.33,374.86 179.09,390.18 " fill="none" id="processing-to-delayed" style="stroke:#A80036;stroke-width:1.0;"/><polygon fill="#A80036" points="176.61,394.91,184.3235,388.7861,178.9258,390.4786,177.2333,385.0809,176.61,394.91" style="stroke:#A80036;stroke-width:1.0;"/><!--MD5=[4ab019a576cd6bf25e5b9695c5e40a9a]
link delayed to processing--><path d="M225.72,394.92 C249.22,379.54 276,362.57 301,348 C322.83,335.28 347.02,322.28 369.25,310.74 " fill="none" id="delayed-to-processing" style="stroke:#A80036;stroke-width:1.0;"/><polygon fill="#A80036" points="373.96,308.31,364.1286,308.8954,369.5197,310.6087,367.8064,315.9998,373.96,308.31" style="stroke:#A80036;stroke-width:1.0;"/><text fill="#000000" font-family="sans-serif" font-size="13" lengthAdjust="spacing" textLength="152" x="302" y="361.0669">Changed by a new task</text><!--MD5=[542e6bc32d694f06345bfca30db40085]
link processing to suspend--><path d="M453.75,318.01 C457.22,333.14 461.67,349.99 467,365 C469.94,373.27 473.5,381.84 477.24,390.1 " fill="none" id="processing-to-suspend" style="stroke:#A80036;stroke-width:1.0;"/><polygon fill="#A80036" points="479.33,394.65,479.1844,384.8022,477.232,390.1115,471.9228,388.159,479.33,394.65" style="stroke:#A80036;stroke-width:1.0;"/><!--MD5=[fc6355f9ecf4494afb9ed719f158175c]
link suspend to processing--><path d="M487.29,394.77 C479.59,372.58 470.28,345.79 462.36,322.99 " fill="none" id="suspend-to-processing" style="stroke:#A80036;stroke-width:1.0;"/><polygon fill="#A80036" points="460.7,318.19,459.8752,328.0043,462.3409,322.9131,467.4321,325.3788,460.7,318.19" style="stroke:#A80036;stroke-width:1.0;"/><text fill="#000000" font-family="sans-serif" font-size="13" lengthAdjust="spacing" textLength="152" x="477" y="361.0669">Changed by a new task</text><!--MD5=[0a8fad9e8b8191a7078fed79fb34bc08]
link processing to finished--><path d="M516.46,298.38 C553.22,312.03 598.5,329.78 638,348 C666.94,361.35 697.82,377.38 725.27,392.3 " fill="none" id="processing-to-finished" style="stroke:#A80036;stroke-width:1.0;"/><polygon fill="#A80036" points="730,394.87,724.0054,387.0556,725.6078,392.4808,720.1826,394.0831,730,394.87" style="stroke:#A80036;stroke-width:1.0;"/><!--MD5=[f20ab7065c26ebabf49f7b8c32a28769]
link finished to *end--><path d="M809,487.12 C809,506.9 809,528.72 809,542.63 " fill="none" id="finished-to-*end" style="stroke:#A80036;stroke-width:1.0;"/><polygon fill="#A80036" points="809,547.73,813,538.73,809,542.73,805,538.73,809,547.73" style="stroke:#A80036;stroke-width:1.0;"/><!--MD5=[d709abcc39560c790cf1d647c074e32d]
@startuml

[*] - -> created
created: New Payment
created: ExecutionContext
created: state: Created

created - -> processing
processing: Payment processing
processing: ExecutionContext
processing: state: Processing
processing: taskId: "string"

processing - -> delayed
delayed: Processing is delayed until the moment of time
delayed: ExecutionContext
delayed: state: Delayed
delayed: postponedTo: "timestamp"
delayed - -> processing : Changed by a new task

processing - -> suspend
suspend: Processing is suspend until the cause is resolved
suspend: ExecutionContext
suspend: state: Suspend
suspend: cause: "string"
suspend - -> processing : Changed by a new task

processing - -> finished
finished: Processing completed successfully
finished: ExecutionContext
finished: state: Finished
finished: payedAt: "timestamp"
finished - -> [*]

@enduml

PlantUML version 1.2021.01(Tue Feb 02 14:55:08 NOVT 2021)
(GPL source distribution)
Java Runtime: OpenJDK Runtime Environment
JVM: OpenJDK 64-Bit Server VM
Default Encoding: UTF-8
Language: en
Country: US
--></g></svg>