<?xml version="1.0" encoding="UTF-8" standalone="no"?><svg xmlns="http://www.w3.org/2000/svg" xmlns:xlink="http://www.w3.org/1999/xlink" contentScriptType="application/ecmascript" contentStyleType="text/css" height="570px" preserveAspectRatio="none" style="width:334px;height:570px;" version="1.1" viewBox="0 0 334 570" width="334px" zoomAndPan="magnify"><defs><filter height="300%" id="ftj637ck9u7nl" width="300%" x="-1" y="-1"><feGaussianBlur result="blurOut" stdDeviation="2.0"/><feColorMatrix in="blurOut" result="blurOut2" type="matrix" values="0 0 0 0 0 0 0 0 0 0 0 0 0 0 0 0 0 0 .4 0"/><feOffset dx="4.0" dy="4.0" in="blurOut2" result="blurOut3"/><feBlend in="SourceGraphic" in2="blurOut3" mode="normal"/></filter></defs><g><ellipse cx="26.6875" cy="31" fill="#000000" filter="url(#ftj637ck9u7nl)" rx="10" ry="10" style="stroke:none;stroke-width:1.0;"/><rect fill="#FEFECE" filter="url(#ftj637ck9u7nl)" height="47.9375" rx="12.5" ry="12.5" style="stroke:#A80036;stroke-width:1.5;" width="118" x="56.6875" y="7"/><text fill="#000000" font-family="sans-serif" font-size="12" lengthAdjust="spacing" textLength="94" x="66.6875" y="28.1387">Received a new</text><text fill="#000000" font-family="sans-serif" font-size="12" lengthAdjust="spacing" textLength="44" x="93.6875" y="42.1074">resuest</text><rect fill="#FEFECE" filter="url(#ftj637ck9u7nl)" height="47.9375" rx="12.5" ry="12.5" style="stroke:#A80036;stroke-width:1.5;" width="135" x="48.1875" y="96"/><text fill="#000000" font-family="sans-serif" font-size="12" lengthAdjust="spacing" textLength="111" x="58.1875" y="117.1387">Save the payment</text><text fill="#000000" font-family="sans-serif" font-size="12" lengthAdjust="spacing" textLength="106" x="62.6875" y="131.1074">into the database</text><polygon fill="#FEFECE" filter="url(#ftj637ck9u7nl)" points="115.6875,185,127.6875,197,115.6875,209,103.6875,197,115.6875,185" style="stroke:#A80036;stroke-width:1.5;"/><rect fill="#FEFECE" filter="url(#ftj637ck9u7nl)" height="47.9375" rx="12.5" ry="12.5" style="stroke:#A80036;stroke-width:1.5;" width="136" x="66.6875" y="328"/><text fill="#000000" font-family="sans-serif" font-size="12" lengthAdjust="spacing" textLength="112" x="76.6875" y="349.1387">Put the task in the</text><text fill="#000000" font-family="sans-serif" font-size="12" lengthAdjust="spacing" textLength="107" x="81.1875" y="363.1074">processing queue</text><rect fill="#FEFECE" filter="url(#ftj637ck9u7nl)" height="33.9688" rx="12.5" ry="12.5" style="stroke:#A80036;stroke-width:1.5;" width="89" x="90.1875" y="450"/><text fill="#000000" font-family="sans-serif" font-size="12" lengthAdjust="spacing" textLength="69" x="100.1875" y="471.1387">Return 201</text><ellipse cx="186.6875" cy="548" fill="none" filter="url(#ftj637ck9u7nl)" rx="10" ry="10" style="stroke:#000000;stroke-width:1.0;"/><ellipse cx="187.1875" cy="548.5" fill="#000000" rx="6" ry="6" style="stroke:none;stroke-width:1.0;"/><polygon fill="#FEFECE" filter="url(#ftj637ck9u7nl)" points="185.6875,250,197.6875,262,185.6875,274,173.6875,262,185.6875,250" style="stroke:#A80036;stroke-width:1.5;"/><rect fill="#FEFECE" filter="url(#ftj637ck9u7nl)" height="33.9688" rx="12.5" ry="12.5" style="stroke:#A80036;stroke-width:1.5;" width="89" x="194.1875" y="396"/><text fill="#000000" font-family="sans-serif" font-size="12" lengthAdjust="spacing" textLength="69" x="204.1875" y="417.1387">Return 200</text><!--MD5=[46cd8490bd24ba23e834ae186a08cd66]
link start to Received a new \nresuest--><path d="M36.7675,31 C41.5975,31 46.4275,31 51.2575,31 " fill="none" id="start-to-Received a new \nresuest" style="stroke:#A80036;stroke-width:1.0;"/><polygon fill="#A80036" points="56.4975,31,47.4975,27,51.4975,31,47.4975,35,56.4975,31" style="stroke:#A80036;stroke-width:1.0;"/><!--MD5=[0b1fd449b2d9f837ebad6005bce25d92]
link Received a new \nresuest to Save the payment \ninto the database--><path d="M115.6875,55.31 C115.6875,66.23 115.6875,79.32 115.6875,90.78 " fill="none" id="Received a new \nresuest-to-Save the payment \ninto the database" style="stroke:#A80036;stroke-width:1.0;"/><polygon fill="#A80036" points="115.6875,95.92,119.6875,86.92,115.6875,90.92,111.6875,86.92,115.6875,95.92" style="stroke:#A80036;stroke-width:1.0;"/><!--MD5=[1edbea1bec9c6c3bb4cd4a7804f10ffe]
link Save the payment \ninto the database to #250--><path d="M115.6875,144.32 C115.6875,155.74 115.6875,169.23 115.6875,179.56 " fill="none" id="Save the payment \ninto the database-to-#250" style="stroke:#A80036;stroke-width:1.0;"/><polygon fill="#A80036" points="115.6875,184.64,119.6875,175.64,115.6875,179.64,111.6875,175.64,115.6875,184.64" style="stroke:#A80036;stroke-width:1.0;"/><text fill="#000000" font-family="sans-serif" font-size="11" lengthAdjust="spacing" textLength="90" x="6" y="174.994">check existence</text><!--MD5=[565081969f0467f7701a40b5dce292bd]
link #250 to Put the task in the \nprocessing queue--><path d="M114.9175,208.35 C114.1675,218.84 113.1075,235.54 112.6875,250 C112.3775,260.66 111.2075,263.44 112.6875,274 C114.9875,290.43 119.9275,308.28 124.5375,322.65 " fill="none" id="#250-to-Put the task in the \nprocessing queue" style="stroke:#A80036;stroke-width:1.0;"/><polygon fill="#A80036" points="126.2175,327.78,127.2193,317.9822,124.6621,323.0281,119.6162,320.4709,126.2175,327.78" style="stroke:#A80036;stroke-width:1.0;"/><text fill="#000000" font-family="sans-serif" font-size="11" lengthAdjust="spacing" textLength="49" x="113.6875" y="266.2104">not exist</text><!--MD5=[99e99799686fb2f0d8fa1948b32b93ab]
link Put the task in the \nprocessing queue to Return 201--><path d="M134.6875,376.14 C134.6875,396.21 134.6875,425.02 134.6875,444.57 " fill="none" id="Put the task in the \nprocessing queue-to-Return 201" style="stroke:#A80036;stroke-width:1.0;"/><polygon fill="#A80036" points="134.6875,449.82,138.6875,440.82,134.6875,444.82,130.6875,440.82,134.6875,449.82" style="stroke:#A80036;stroke-width:1.0;"/><!--MD5=[cd7e807b539056391c8285ed058c623c]
link Return 201 to end--><path d="M130.6775,484.41 C129.0775,494.74 128.7975,507.97 134.6875,518 C142.6575,531.57 159.5375,539.26 171.9175,543.26 " fill="none" id="Return 201-to-end" style="stroke:#A80036;stroke-width:1.0;"/><polygon fill="#A80036" points="176.9075,544.75,169.4452,538.3223,172.1203,543.3067,167.136,545.9818,176.9075,544.75" style="stroke:#A80036;stroke-width:1.0;"/><text fill="#000000" font-family="sans-serif" font-size="11" lengthAdjust="spacing" textLength="86" x="135.6875" y="515.2104">Ending process</text><!--MD5=[59086fc42ed844cc4931b5c030fa224c]
link #250 to #259--><path d="M121.6575,203.37 C133.7475,214.25 161.2175,238.98 175.9475,252.23 " fill="none" id="#250-to-#259" style="stroke:#A80036;stroke-width:1.0;"/><polygon fill="#A80036" points="179.7375,255.64,175.7237,246.6461,176.021,252.2952,170.372,252.5925,179.7375,255.64" style="stroke:#A80036;stroke-width:1.0;"/><text fill="#000000" font-family="sans-serif" font-size="11" lengthAdjust="spacing" textLength="118" x="47.5297" y="251.2347">check payment state</text><!--MD5=[2c75616f54fef487c89c64315be478cf]
link #259 to Put the task in the \nprocessing queue--><path d="M177.3275,265.84 C166.3275,270.06 147.3675,279.15 138.6875,294 C133.7075,302.53 131.9875,313.04 131.7575,322.71 " fill="none" id="#259-to-Put the task in the \nprocessing queue" style="stroke:#A80036;stroke-width:1.0;"/><polygon fill="#A80036" points="131.7675,327.98,135.7418,318.9686,131.7532,322.98,127.7418,318.9915,131.7675,327.98" style="stroke:#A80036;stroke-width:1.0;"/><text fill="#000000" font-family="sans-serif" font-size="11" lengthAdjust="spacing" textLength="82" x="139.6875" y="305.2104">state=Created</text><!--MD5=[032f4a5ee5357a464dcb77d65142a3cf]
link #259 to Return 200--><path d="M193.2975,266.86 C202.2175,271.83 216.6675,281.34 223.6875,294 C240.6175,324.52 241.7275,366.16 240.5375,390.94 " fill="none" id="#259-to-Return 200" style="stroke:#A80036;stroke-width:1.0;"/><polygon fill="#A80036" points="240.2475,395.97,244.7308,387.2008,240.5193,390.9774,236.7427,386.7659,240.2475,395.97" style="stroke:#A80036;stroke-width:1.0;"/><!--MD5=[6c56c1e1b066f85dac29271344df5fd3]
link Return 200 to end--><path d="M239.9375,430.35 C240.8175,451.92 239.6775,490.37 223.6875,518 C218.0975,527.66 207.9275,535.27 199.6675,540.27 " fill="none" id="Return 200-to-end" style="stroke:#A80036;stroke-width:1.0;"/><polygon fill="#A80036" points="195.3075,542.77,205.1041,541.7569,199.6434,540.2801,201.1202,534.8194,195.3075,542.77" style="stroke:#A80036;stroke-width:1.0;"/><text fill="#000000" font-family="sans-serif" font-size="11" lengthAdjust="spacing" textLength="86" x="240.6875" y="471.2104">Ending process</text><!--MD5=[a2a557398821e27b42fff0895a2bd277]
@startuml

(*) -right-> "Received a new \nresuest"
- -> "Save the payment \ninto the database"
If "check existence" then
- -> [not exist] "Put the task in the \nprocessing queue"
- -> "Return 201"
- ->[Ending process] (*)
else
- -> If "check payment state" then
- -> [state=Created]"Put the task in the \nprocessing queue"
else
- -> "Return 200"
- ->[Ending process] (*)
Endif

Endif

@enduml

PlantUML version 1.2021.01(Tue Feb 02 14:55:08 NOVT 2021)
(GPL source distribution)
Java Runtime: OpenJDK Runtime Environment
JVM: OpenJDK 64-Bit Server VM
Default Encoding: UTF-8
Language: en
Country: US
--></g></svg>